<svg xmlns="http://www.w3.org/2000/svg" width="1024" height="1024" viewBox="0 0 1024 1024">
  <title>Toastty App Icon — Terminal Toast Slice (Bold Outline)</title>
  <defs>
    <linearGradient id="bg" x1="200" y1="0" x2="824" y2="1024" gradientUnits="userSpaceOnUse">
      <stop offset="0" stop-color="#3d2618"/>
      <stop offset="1" stop-color="#2a1407"/>
    </linearGradient>
  </defs>

  <!-- Background fill (macOS applies squircle mask) -->
  <rect width="1024" height="1024" fill="url(#bg)"/>

  <!-- Toast slice icon, scaled 4x from 170x170 centered in 256x256 -->
  <g transform="translate(172, 172) scale(4)">
    <!-- Outer crust -->
    <path d="M40 145 L35 65 Q33 28 60 25 L110 25 Q137 28 135 65 L130 145 Q130 150 85 150 Q40 150 40 145 Z" fill="#D4943C" stroke="#1A1A1A" stroke-width="6" stroke-linecap="round" stroke-linejoin="round"/>
    <!-- Inner bread face -->
    <path d="M48 140 L44 70 Q43 38 64 35 L106 35 Q127 38 126 70 L122 140 Q122 143 85 143 Q48 143 48 140 Z" fill="#F5E2C0" stroke="#1A1A1A" stroke-width="4" stroke-linecap="round" stroke-linejoin="round"/>
    <!-- Terminal prompt chevron -->
    <path d="M62 72 L82 90 L62 108" stroke="#1A1A1A" stroke-width="7" fill="none" stroke-linecap="round" stroke-linejoin="round"/>
    <!-- Cursor underscore -->
    <rect x="90" y="102" width="24" height="6" rx="3" fill="#1A1A1A"/>
  </g>
</svg>
