<svg xmlns="http://www.w3.org/2000/svg" width="1024" height="1024" viewBox="0 0 1024 1024">
  <title>Toastty App Icon - Refined Toast Terminal</title>
  <defs>
    <linearGradient id="background" x1="178" y1="52" x2="846" y2="972" gradientUnits="userSpaceOnUse">
      <stop offset="0" stop-color="#3d2618"/>
      <stop offset="0.54" stop-color="#2a1407"/>
      <stop offset="1" stop-color="#160a05"/>
    </linearGradient>
    <radialGradient id="amberGlow" cx="0" cy="0" r="1" gradientUnits="userSpaceOnUse" gradientTransform="translate(512 532) rotate(90) scale(390 420)">
      <stop offset="0" stop-color="#f6a72e" stop-opacity="0.28"/>
      <stop offset="0.48" stop-color="#f6a72e" stop-opacity="0.09"/>
      <stop offset="1" stop-color="#f6a72e" stop-opacity="0"/>
    </radialGradient>
    <linearGradient id="crust" x1="512" y1="184" x2="512" y2="804" gradientUnits="userSpaceOnUse">
      <stop offset="0" stop-color="#ffbf54"/>
      <stop offset="0.42" stop-color="#f4a62d"/>
      <stop offset="1" stop-color="#a96111"/>
    </linearGradient>
    <linearGradient id="crustShade" x1="320" y1="218" x2="736" y2="806" gradientUnits="userSpaceOnUse">
      <stop offset="0" stop-color="#ffe2a0" stop-opacity="0.68"/>
      <stop offset="0.4" stop-color="#f4a62d" stop-opacity="0.18"/>
      <stop offset="1" stop-color="#6e3d08" stop-opacity="0.32"/>
    </linearGradient>
    <linearGradient id="bread" x1="512" y1="274" x2="512" y2="732" gradientUnits="userSpaceOnUse">
      <stop offset="0" stop-color="#fff8e9"/>
      <stop offset="0.58" stop-color="#f7e6bd"/>
      <stop offset="1" stop-color="#e6cc93"/>
    </linearGradient>
    <linearGradient id="breadGlow" x1="368" y1="304" x2="620" y2="716" gradientUnits="userSpaceOnUse">
      <stop offset="0" stop-color="#ffffff" stop-opacity="0.62"/>
      <stop offset="0.58" stop-color="#ffffff" stop-opacity="0.08"/>
      <stop offset="1" stop-color="#b77923" stop-opacity="0.16"/>
    </linearGradient>
    <filter id="toastShadow" x="130" y="120" width="764" height="780" filterUnits="userSpaceOnUse" color-interpolation-filters="sRGB">
      <feDropShadow dx="0" dy="42" stdDeviation="34" flood-color="#000000" flood-opacity="0.42"/>
      <feDropShadow dx="0" dy="10" stdDeviation="10" flood-color="#000000" flood-opacity="0.24"/>
    </filter>
    <filter id="promptShadow" x="300" y="360" width="410" height="300" filterUnits="userSpaceOnUse" color-interpolation-filters="sRGB">
      <feDropShadow dx="0" dy="5" stdDeviation="5" flood-color="#6b3b08" flood-opacity="0.18"/>
    </filter>
  </defs>

  <rect width="1024" height="1024" fill="url(#background)"/>
  <rect width="1024" height="1024" fill="url(#amberGlow)"/>
  <rect x="78" y="78" width="868" height="868" rx="188" fill="#ffffff" fill-opacity="0.012" stroke="#f0c083" stroke-opacity="0.16" stroke-width="2"/>

  <g filter="url(#toastShadow)">
    <path
      d="M226 746V472C190 442 180 379 203 328C235 254 322 218 512 218C702 218 789 254 821 328C844 379 834 442 798 472V746C798 790 758 813 512 813C266 813 226 790 226 746Z"
      fill="url(#crust)"
    />
    <path
      d="M226 746V472C190 442 180 379 203 328C235 254 322 218 512 218C702 218 789 254 821 328C844 379 834 442 798 472V746C798 790 758 813 512 813C266 813 226 790 226 746Z"
      fill="url(#crustShade)"
      opacity="0.92"
    />
    <path
      d="M305 704V469C276 446 268 397 286 359C311 306 379 281 512 281C645 281 713 306 738 359C756 397 748 446 719 469V704C719 734 692 749 512 749C332 749 305 734 305 704Z"
      fill="url(#bread)"
    />
    <path
      d="M305 704V469C276 446 268 397 286 359C311 306 379 281 512 281C645 281 713 306 738 359C756 397 748 446 719 469V704C719 734 692 749 512 749C332 749 305 734 305 704Z"
      fill="url(#breadGlow)"
    />
    <path
      d="M220 365C249 275 344 239 512 239C680 239 775 275 804 365"
      fill="none"
      stroke="#ffe3a0"
      stroke-opacity="0.74"
      stroke-width="14"
      stroke-linecap="round"
    />
  </g>

  <g filter="url(#promptShadow)" stroke="#171a1b" stroke-linecap="round" stroke-linejoin="round">
    <path d="M372 435L496 522L372 609" fill="none" stroke-width="56"/>
    <path d="M556 614H664" fill="none" stroke-width="52"/>
  </g>
</svg>
