<svg width="1024" height="1024" viewBox="0 0 1024 1024" fill="none" xmlns="http://www.w3.org/2000/svg">
  <title>Toastty App Icon Concept 04 - Toast Stamp</title>
  <desc>Minimal bakery seal direction with a toast-shaped T monogram designed for strong recognition at small sizes.</desc>
  <defs>
    <linearGradient id="bgD" x1="166" y1="110" x2="840" y2="888" gradientUnits="userSpaceOnUse">
      <stop offset="0" stop-color="#7A3514"/>
      <stop offset="0.48" stop-color="#5B2410"/>
      <stop offset="1" stop-color="#2D1108"/>
    </linearGradient>
    <linearGradient id="sealD" x1="512" y1="286" x2="512" y2="742" gradientUnits="userSpaceOnUse">
      <stop offset="0" stop-color="#FFE4B8"/>
      <stop offset="1" stop-color="#F5B652"/>
    </linearGradient>
    <filter id="shadowD" x="80" y="62" width="864" height="926" filterUnits="userSpaceOnUse" color-interpolation-filters="sRGB">
      <feDropShadow dx="0" dy="28" stdDeviation="32" flood-color="#120702" flood-opacity="0.4"/>
    </filter>
  </defs>

  <g filter="url(#shadowD)">
    <rect x="112" y="88" width="800" height="800" rx="188" fill="url(#bgD)"/>
    <rect x="126" y="102" width="772" height="772" rx="174" stroke="rgba(255,255,255,0.12)" stroke-width="2"/>
  </g>

  <circle cx="512" cy="512" r="242" fill="url(#sealD)"/>
  <circle cx="512" cy="512" r="216" stroke="#7E3914" stroke-width="16" opacity="0.34"/>
  <circle cx="512" cy="512" r="190" stroke="#7E3914" stroke-width="8" stroke-dasharray="8 18" opacity="0.32"/>

  <path d="M448 638V438C448 384 484 354 512 354C540 354 576 384 576 438V462H538V438C538 410 523 394 512 394C501 394 486 410 486 438V638H448Z" fill="#5B2410"/>
  <path d="M390 420H634V460H532V646H492V460H390V420Z" fill="#5B2410"/>
  <rect x="454" y="508" width="116" height="90" rx="18" fill="#7A3514" opacity="0.22"/>
  <path d="M470 526H554V540H470V526Z" fill="#5B2410" opacity="0.34"/>
  <path d="M470 548H554V562H470V548Z" fill="#5B2410" opacity="0.34"/>
  <path d="M470 570H554V584H470V570Z" fill="#5B2410" opacity="0.34"/>

  <g opacity="0.76">
    <path d="M388 294C364 262 370 228 398 198" stroke="#FFE7BC" stroke-width="14" stroke-linecap="round"/>
    <path d="M512 278C491 248 496 214 522 186" stroke="#FFE7BC" stroke-width="14" stroke-linecap="round"/>
    <path d="M636 296C613 264 620 230 648 200" stroke="#FFE7BC" stroke-width="14" stroke-linecap="round"/>
  </g>
</svg>
